<svg width="52" height="52" viewBox="0 0 52 52" fill="none" xmlns="http://www.w3.org/2000/svg">
<path d="M8.45654 8.9728L9.1759 0.365967L51.8264 42.8517H42.4668L8.45654 8.9728Z" fill="#FFE66D"/>
<path fill-rule="evenodd" clip-rule="evenodd" d="M36.4842 0H8.35681V8.78973L14.975 15.3824V6.59265H36.4842C40.8501 6.59265 44.3893 10.1182 44.3893 14.4672C44.3893 18.8162 40.8501 22.3417 36.4842 22.3417H21.9614L28.5796 28.9344H36.4842C44.5052 28.9344 51.0076 22.4572 51.0076 14.4672C51.0076 6.47718 44.5052 0 36.4842 0Z" fill="#FFE66D"/>
<path d="M0 16.457L2.03314e-05 7.13354L45.0407 52.0001L35.6811 52.0001L0 16.457Z" fill="white"/>
<path d="M8.35547 30.8423L20.4127 42.853L8.35676 42.8518L8.35547 30.8423Z" fill="#FFE66D"/>
</svg>
