<svg aria-hidden="true" style="position: absolute; width: 0; height: 0; overflow: hidden;" version="1.1" xmlns="http://www.w3.org/2000/svg" xmlns:xlink="http://www.w3.org/1999/xlink">
    <defs>
        <symbol id="burger" viewBox="0 0 32 32">
            <path d="M2 6h28v6h-28zM2 14h28v6h-28zM2 22h28v6h-28z"></path>
        </symbol>
        <symbol id="cross" viewBox="0 0 32 32">
            <path d="M16 0c-8.837 0-16 7.163-16 16s7.163 16 16 16 16-7.163 16-16-7.163-16-16-16zM16 29c-7.18 0-13-5.82-13-13s5.82-13 13-13 13 5.82 13 13-5.82 13-13 13z"></path>
            <path d="M21 8l-5 5-5-5-3 3 5 5-5 5 3 3 5-5 5 5 3-3-5-5 5-5z"></path>
        </symbol>
        <symbol id="address" viewBox="0 0 32 32">
            <path fill="#fff" style="fill: var(--color1, #fff)" d="M12.781 28.663v3.241l-0.784-0.633c-0.121-0.098-3.002-2.437-5.924-5.791-4.030-4.627-6.074-8.781-6.074-12.345v-0.353c0-7.048 5.734-12.781 12.781-12.781s12.781 5.734 12.781 12.781v0.353c0 0.299-0.016 0.603-0.045 0.911l-2.5-2.28c-0.512-5.197-4.907-9.271-10.237-9.271-5.672 0-10.287 4.615-10.287 10.287v0.353c0 6.023 7.76 13.314 10.287 15.528zM20.45 26.872h3.741v-3.741h-3.741v3.741zM12.781 7.482c2.922 0 5.3 2.377 5.3 5.3s-2.377 5.3-5.3 5.3c-2.922 0-5.3-2.377-5.3-5.3s2.377-5.3 5.3-5.3zM12.781 9.976c-1.547 0-2.806 1.259-2.806 2.806s1.259 2.806 2.806 2.806c1.547 0 2.806-1.259 2.806-2.806s-1.259-2.806-2.806-2.806zM30.319 25.177l-0.701-0.639v4.004c0 1.864-1.517 3.381-3.381 3.381h-7.896c-1.864 0-3.381-1.517-3.381-3.381v-4.004l-0.701 0.639-1.681-1.842 9.711-8.859 9.711 8.859-1.681 1.842zM27.124 22.262l-4.835-4.411-4.835 4.411v6.279c0 0.489 0.398 0.887 0.887 0.887h7.896c0.489 0 0.887-0.398 0.887-0.887v-6.279z"></path>
        </symbol>
        <symbol id="phone" viewBox="0 0 19 32">
            <path fill="#fff" style="fill: var(--color1, #fff)" d="M15.996 0h-13.464c-1.289 0-2.329 1.045-2.329 2.331v27.34c0 1.285 1.040 2.329 2.329 2.329h13.464c1.286 0 2.329-1.044 2.329-2.329v-27.34c0-1.286-1.043-2.331-2.329-2.331zM5.942 1.416h6.647c0.168 0 0.304 0.251 0.304 0.561s-0.136 0.562-0.304 0.562h-6.647c-0.169 0-0.303-0.252-0.303-0.562s0.134-0.561 0.303-0.561zM9.265 29.699c-0.82 0-1.487-0.667-1.487-1.488s0.667-1.486 1.487-1.486c0.817 0 1.484 0.665 1.484 1.486s-0.667 1.488-1.484 1.488zM16.58 24.605h-14.631v-20.671h14.631v20.671z"></path>
        </symbol>
        <symbol id="mail" viewBox="0 0 32 32">
            <path fill="#fff" style="fill: var(--color1, #fff)" d="M16 3.75c-3.619 0-6.563 2.944-6.563 6.563 0 2.246 1.133 4.313 3.030 5.529 1.938 1.241 4.316 1.373 6.527 0.356 0.47-0.216 0.676-0.773 0.46-1.244s-0.773-0.676-1.243-0.46c-1.616 0.744-3.341 0.659-4.731-0.232-1.357-0.869-2.167-2.346-2.167-3.95 0-2.585 2.103-4.688 4.688-4.688s4.688 2.103 4.688 4.688c0 0.517-0.421 0.938-0.937 0.938-0.472 0-0.914-0.358-0.937-0.923 0-0.005-0-0.009-0-0.014 0-1.551-1.262-2.813-2.812-2.813s-2.813 1.262-2.813 2.813c0 1.551 1.262 2.813 2.813 2.813 0.72 0 1.377-0.272 1.875-0.718 0.498 0.446 1.155 0.718 1.875 0.718 1.551 0 2.812-1.262 2.812-2.813 0-3.619-2.944-6.563-6.563-6.563zM16.924 10.463c-0.072 0.446-0.459 0.787-0.924 0.787-0.517 0-0.938-0.421-0.938-0.938s0.421-0.938 0.938-0.938c0.481 0 0.877 0.364 0.931 0.83-0.014 0.085-0.016 0.172-0.007 0.258z"></path>
            <path fill="#fff" style="fill: var(--color1, #fff)" d="M30.062 12.311c-0-0.242-0.098-0.485-0.275-0.661l-3.476-3.475v-7.237c0-0.518-0.42-0.938-0.937-0.938h-18.75c-0.518 0-0.938 0.42-0.938 0.938v7.237l-3.475 3.475c-0.003 0.003-0.006 0.007-0.009 0.010-0.176 0.181-0.265 0.419-0.265 0.651 0 0.001-0 0.001-0 0.002v16.875c0 1.553 1.263 2.812 2.813 2.812h22.5c1.552 0 2.812-1.263 2.812-2.812v-16.875c0-0.001 0-0.001 0-0.002zM26.312 10.826l1.487 1.487-1.487 1.487v-2.973zM7.563 8.563c0-0 0-0 0-0.001v-6.687h16.875v6.687c0 0 0 0 0 0.001v7.111l-5.076 5.076h-6.723l-5.076-5.076v-7.111zM5.688 10.826v2.973l-1.487-1.487 1.487-1.487zM3.813 28.799v-14.223l7.112 7.112-7.112 7.112zM5.138 30.125l7.5-7.5h6.723l7.5 7.5h-21.723zM28.187 28.799l-7.112-7.112 7.112-7.112v14.223z"></path>
        </symbol>
    </defs>
</svg>